<?xml version="1.0" encoding="UTF-8"?>
<svg version="1.1" xmlns="http://www.w3.org/2000/svg" width="809" height="284">
<path d="M0 0 C10.23 0 20.46 0 31 0 C31.02256518 9.35309182 31.04092332 18.70616564 31.05181217 28.05927849 C31.05703746 32.4019967 31.06412873 36.74469538 31.07543945 41.08740234 C31.08628085 45.27598387 31.09227951 49.46454656 31.09487724 53.65314102 C31.09672922 55.25357485 31.10034552 56.8540076 31.10573006 58.45443344 C31.1129571 60.69083661 31.11399023 62.92716131 31.11352539 65.16357422 C31.115746 66.43820526 31.11796661 67.7128363 31.12025452 69.02609253 C31 72 31 72 30 74 C33.96971452 70.13320401 37.63491924 66.07338313 41.25 61.875 C41.82355225 61.21121338 42.39710449 60.54742676 42.98803711 59.86352539 C46.96694082 55.24237744 50.85052984 50.55228666 54.6875 45.8125 C57.42988102 42.47717174 60.24197747 39.20673207 63.0625 35.9375 C67.04477088 31.3159617 70.93562181 26.64569274 74.71484375 21.85546875 C78.52831752 17.09025623 82.43795109 12.40340753 86.34130859 7.71166992 C87.22230225 6.64783081 87.22230225 6.64783081 88.12109375 5.5625 C88.91664673 4.60537109 88.91664673 4.60537109 89.72827148 3.62890625 C91.07530974 2.014309 91.07530974 2.014309 92 0 C104.87 0 117.74 0 131 0 C128.98757693 4.02484613 126.55917629 7.03233215 123.625 10.375 C122.53242895 11.63400774 121.43998449 12.89312534 120.34765625 14.15234375 C119.78965332 14.79284668 119.23165039 15.43334961 118.65673828 16.09326172 C116.10802639 19.02657145 113.58661503 21.98303302 111.0625 24.9375 C106.34882334 30.4421968 101.60628736 35.92142782 96.85571289 41.39428711 C92.73177089 46.14804516 88.62479299 50.91600044 84.54589844 55.70849609 C81.85467321 58.86437399 79.12957627 61.9833917 76.359375 65.0703125 C75.45638672 66.08544922 75.45638672 66.08544922 74.53515625 67.12109375 C73.3687578 68.43042067 72.19456575 69.73285725 71.01171875 71.02734375 C67.53747188 74.87978718 67.53747188 74.87978718 67 80 C68.02717872 81.7237495 68.02717872 81.7237495 69.52734375 83.28515625 C70.0675415 83.89238525 70.60773926 84.49961426 71.16430664 85.12524414 C71.74946045 85.76453857 72.33461426 86.40383301 72.9375 87.0625 C74.14443515 88.41559191 75.35015994 89.7697644 76.5546875 91.125 C77.14733398 91.78757812 77.73998047 92.45015625 78.35058594 93.1328125 C80.49034496 95.55508559 82.53359627 98.04695884 84.5625 100.5625 C87.97136829 104.77198323 91.46394774 108.89764847 95 113 C98.53605226 117.10235153 102.02863171 121.22801677 105.4375 125.4375 C109.03636763 129.87240221 112.74748083 134.19552869 116.5 138.5 C131.1680622 155.3361244 131.1680622 155.3361244 133 159 C127.38124337 159.32439528 121.76805778 159.55855241 116.14208984 159.71411133 C114.23454789 159.77900576 112.32764043 159.86737012 110.42236328 159.98071289 C93.76146095 160.94611914 93.76146095 160.94611914 88.15893555 156.24829102 C85.52029589 153.59961457 83.27886137 150.74041584 81.16093445 147.66444397 C79.36433972 145.08864715 77.32878918 142.71756714 75.3125 140.3125 C74.59707031 139.42175781 73.88164062 138.53101563 73.14453125 137.61328125 C70.29072894 134.13569702 67.2613292 130.83471033 64.23046875 127.51171875 C62.00480649 125.00541256 59.90478439 122.43075607 57.8125 119.8125 C52.91978087 113.75894242 47.59928058 108.14092012 42.26171875 102.48046875 C39.1377252 99.16329381 36.1065357 95.77637152 33.13671875 92.3203125 C32.05153909 91.02670107 32.05153909 91.02670107 31 90 C31.00222061 90.83493988 31.00444122 91.66987976 31.00672913 92.53012085 C31.02674299 100.38791732 31.04197974 108.24570527 31.05181217 116.10352135 C31.05703699 120.14356954 31.06412739 124.18359672 31.07543945 128.22363281 C31.08628254 132.120441 31.09227987 136.01722895 31.09487724 139.91405106 C31.09672892 141.40284163 31.10034463 142.89163107 31.10573006 144.38041306 C31.11295934 146.46115285 31.11399014 148.54180832 31.11352539 150.62255859 C31.115746 151.80836517 31.11796661 152.99417175 31.12025452 154.21591187 C31 157 31 157 30 159 C20.1 159 10.2 159 0 159 C0 106.53 0 54.06 0 0 Z " fill="#022F52" transform="translate(288,60)"/>
<path d="M0 0 C4.54101562 4.39453125 4.54101562 4.39453125 5.9375 7.1875 C6.2675 2.5675 6.5975 -2.0525 6.9375 -6.8125 C16.8375 -6.8125 26.7375 -6.8125 36.9375 -6.8125 C36.9375 46.3175 36.9375 99.4475 36.9375 154.1875 C27.0375 154.1875 17.1375 154.1875 6.9375 154.1875 C6.9375 134.3875 6.9375 114.5875 6.9375 94.1875 C6.2775 94.1875 5.6175 94.1875 4.9375 94.1875 C4.56625 95.31478516 4.56625 95.31478516 4.1875 96.46484375 C1.54005122 102.23131813 -4.78297389 105.82045618 -10.3125 108.625 C-22.60320628 113.0611768 -39.28479819 111.36602258 -51.0625 106.1875 C-54.71548726 104.16941613 -57.88055816 101.88076666 -61.0625 99.1875 C-61.77019531 98.61386719 -62.47789062 98.04023438 -63.20703125 97.44921875 C-72.7739716 88.90665442 -78.3856702 75.21586154 -79.23828125 62.58300781 C-80.17561609 42.570909 -78.26192347 24.73523551 -64.8125 8.9375 C-48.7950308 -7.96535695 -19.31791685 -16.97635117 0 0 Z M-42.3125 27.5 C-49.38300391 38.35827386 -50.54918734 50.54923041 -48.6015625 63.17578125 C-46.47049652 71.23622494 -41.84712333 77.69813855 -34.82421875 82.22265625 C-27.02344037 86.4949229 -16.6514329 86.4728718 -8.1875 84.125 C-1.91036248 81.64869804 2.02433408 77.23265715 5.109375 71.3515625 C7.82436742 64.98209789 7.48246247 58.50270025 7.375 51.6875 C7.38208984 50.42035156 7.38917969 49.15320313 7.39648438 47.84765625 C7.33063538 38.1121358 6.45538089 30.00888751 -0.38671875 22.69140625 C-6.11849477 17.5475047 -12.19528128 15.83289136 -19.82421875 15.9765625 C-29.13417146 16.85394024 -35.89333664 20.90252655 -42.3125 27.5 Z " fill="#023052" transform="translate(618.0625,110.8125)"/>
<path d="M0 0 C0.70382813 0.53109375 1.40765625 1.0621875 2.1328125 1.609375 C0.11314061 6.02646889 -2.80824794 8.99056526 -6.1796875 12.421875 C-6.74880859 13.03224609 -7.31792969 13.64261719 -7.90429688 14.27148438 C-9.49514787 15.89155881 -10.9869713 17.33576406 -12.8671875 18.609375 C-15.61328125 18.5625 -15.61328125 18.5625 -17.8671875 17.609375 C-24.5034203 15.04537596 -30.52999572 14.41723278 -37.2421875 17.046875 C-47.7752855 22.41807739 -56.1646646 31.58293284 -64.44921875 39.85546875 C-65.51757971 40.917378 -66.58607939 41.9791477 -67.65470886 43.04078674 C-69.87416112 45.24837769 -72.08955928 47.4599453 -74.30249023 49.67407227 C-77.117375 52.48916098 -79.94582712 55.29018195 -82.77791309 58.08795071 C-84.98204707 60.26970487 -87.17688667 62.46063435 -89.36932945 64.65413094 C-90.40775981 65.69022697 -91.44937446 66.72314311 -92.49442482 67.75256157 C-102.35291677 77.4771305 -109.70790612 86.62984803 -110.2421875 100.921875 C-110.11351047 108.36798562 -108.53661628 114.39035795 -103.7421875 120.171875 C-98.09845259 122.99374246 -92.28887091 123.30438852 -86.2421875 121.546875 C-76.49487485 117.71270481 -64.99467103 107.71290717 -59.8671875 98.609375 C-60.02335057 94.4645469 -61.57903274 92.37571929 -64.3671875 89.421875 C-68.76108496 84.71284146 -68.76108496 84.71284146 -69.1796875 80.359375 C-68.73323451 75.00193914 -66.893194 72.35377442 -62.84375 68.8671875 C-57.13475742 64.63902576 -57.13475742 64.63902576 -52.52734375 64.53125 C-47.57843155 65.98898721 -45.09505029 68.60446872 -41.6171875 72.296875 C-41.00617188 72.90982422 -40.39515625 73.52277344 -39.765625 74.15429688 C-34.23672114 79.84617061 -31.16608869 85.27530771 -30.6171875 93.234375 C-30.78167706 102.08391358 -33.98504816 109.12703367 -39.8671875 115.609375 C-41.07617631 116.69841062 -42.3051048 117.76562718 -43.55078125 118.8125 C-48.80722135 123.34686519 -53.56356749 128.34583094 -58.3359375 133.38085938 C-68.52240649 143.82105038 -79.39639399 148.60444111 -93.9921875 148.984375 C-104.2681446 148.7130626 -111.79643318 145.94529428 -119.8671875 139.609375 C-120.48464844 139.12984375 -121.10210937 138.6503125 -121.73828125 138.15625 C-129.53848685 131.27678136 -134.64023999 119.83969788 -135.8671875 109.609375 C-136.01027344 108.660625 -136.15335938 107.711875 -136.30078125 106.734375 C-137.95412556 92.82582906 -135.10108219 78.16217784 -126.8671875 66.609375 C-120.12962296 58.62378978 -112.70412054 51.25200222 -105.34375 43.84765625 C-104.75894238 43.2587731 -104.17413475 42.66988995 -103.57160568 42.06316185 C-100.48196887 38.95284878 -97.38919748 35.84569127 -94.29394531 32.7409668 C-91.12645405 29.56238153 -87.97083379 26.3722729 -84.81765175 23.17950153 C-82.3620301 20.69757997 -79.8974152 18.22473358 -77.43040085 15.75414085 C-76.26379549 14.58271313 -75.10052365 13.40795445 -73.94090652 12.22960854 C-52.87244126 -9.1581618 -26.54991561 -18.99393441 0 0 Z " fill="#022D4E" transform="translate(158.8671875,65.390625)"/>
<path d="M0 0 C29.93457602 -3.65324009 29.93457602 -3.65324009 37.95117188 2.12841797 C42.53705699 7.50086945 45.31178473 13.6427073 47.83886719 20.19140625 C49.23490847 23.56820586 51.02973661 26.46886279 53.08642578 29.4765625 C54 31 54 31 54 33 C54.66 33 55.32 33 56 33 C56.27545654 32.26950439 56.55091309 31.53900879 56.8347168 30.78637695 C57.93275103 28.16080294 59.17298674 25.84942891 60.64453125 23.41796875 C61.15693359 22.56783203 61.66933594 21.71769531 62.19726562 20.84179688 C62.73029297 19.96587891 63.26332031 19.08996094 63.8125 18.1875 C64.59463867 16.89102539 64.59463867 16.89102539 65.39257812 15.56835938 C66.43038336 13.85164035 67.48688619 12.14607818 68.56225586 10.45263672 C70.05088173 8.07570344 70.05088173 8.07570344 70.89282227 5.59814453 C71.98091962 2.96864876 72.6924254 1.69931489 75 0 C80.79584286 -1.00547803 86.45685392 -0.75162602 92.3125 -0.5 C93.92764688 -0.45985202 95.54288887 -0.42335348 97.15820312 -0.390625 C101.10782023 -0.30265046 105.0528698 -0.16474097 109 0 C104.68812604 6.87641041 100.25271981 13.62639657 95.5625 20.25 C94.35249061 21.96848674 93.14287247 23.68724901 91.93359375 25.40625 C91.30179199 26.3034375 90.66999023 27.200625 90.01904297 28.125 C86.37001093 33.32100982 82.74850509 38.53617203 79.125 43.75 C78.41674072 44.76868164 77.70848145 45.78736328 76.97875977 46.83691406 C75.3188976 49.22441802 73.65930494 51.61210875 72 54 C75.16200749 59.94842453 78.60344519 65.49157526 82.5625 70.9375 C87.3629052 77.63686817 91.99660529 84.42597287 96.54223633 91.30029297 C100.51618531 97.30160611 104.57951024 103.2369121 108.69946289 109.13891602 C112 113.89411389 112 113.89411389 112 115 C81.03692671 118.15553428 81.03692671 118.15553428 73.27832031 113.29492188 C69.17516102 108.78688531 67.1013432 103.40009211 65.07128906 97.72070312 C63.35891826 93.37187446 60.8258548 89.62851413 58.25 85.75 C57.4184792 84.4344319 56.58998195 83.11694389 55.765625 81.796875 C55.18296875 80.87390625 54.6003125 79.9509375 54 79 C51.22289857 81.49644252 49.49856394 84.27766729 47.6015625 87.48046875 C46.95703125 88.56263672 46.3125 89.64480469 45.6484375 90.75976562 C44.98070312 91.89091797 44.31296875 93.02207031 43.625 94.1875 C41.66777654 97.48458054 39.71109579 100.7788675 37.70483398 104.04638672 C35.97676624 106.86800111 35.97676624 106.86800111 35.00024414 109.56689453 C33.92515084 112.12410301 33.26464126 113.37054169 31 115 C25.3656063 115.98878861 19.88086675 115.75227166 14.1875 115.5 C12.62053294 115.45985042 11.05346778 115.42335215 9.48632812 115.390625 C5.65512608 115.30266498 1.82863668 115.16476794 -2 115 C-0.82736631 111.86469124 0.39936213 109.17093725 2.36328125 106.4609375 C2.83137207 105.80786621 3.29946289 105.15479492 3.78173828 104.48193359 C4.28688965 103.78664551 4.79204102 103.09135742 5.3125 102.375 C6.40094425 100.8550286 7.48813874 99.33416164 8.57421875 97.8125 C9.41992432 96.62914062 9.41992432 96.62914062 10.28271484 95.421875 C17.25442636 85.58972 23.9738901 75.57210767 30.6875 65.5625 C31.09758301 64.95390137 31.50766602 64.34530273 31.93017578 63.71826172 C33.81772169 60.88976249 35.57884097 58.09311084 37 55 C31.44795443 46.87958689 25.86907612 38.78046934 20.1875 30.75 C19.70345703 30.06486328 19.21941406 29.37972656 18.72070312 28.67382812 C16.51904584 25.55838312 14.31565218 22.44422409 12.10595703 19.33447266 C10.14974187 16.58011784 8.1995291 13.82158981 6.25 11.0625 C5.62891357 10.19141602 5.00782715 9.32033203 4.36791992 8.42285156 C3.7979126 7.61428711 3.22790527 6.80572266 2.640625 5.97265625 C2.13047852 5.25343994 1.62033203 4.53422363 1.09472656 3.79321289 C0 2 0 2 0 0 Z " fill="#022C4E" transform="translate(669,104)"/>
<path d="M0 0 C2.75093215 3.83567759 2.54800982 5.66191853 2.09179688 10.32348633 C1.99445251 11.42144279 1.99445251 11.42144279 1.8951416 12.5415802 C1.66647753 15.01815908 1.39612094 17.48815081 1.12304688 19.96020508 C0.93705936 21.79521846 0.75219863 23.63034633 0.56835938 25.46557617 C0.06639746 30.36059001 -0.47566757 35.25024688 -1.03369141 40.13916016 C-1.38077485 43.18120088 -1.72117443 46.22393595 -2.06054688 49.2668457 C-2.28021793 51.22066462 -2.50025632 53.17444228 -2.72070312 55.12817383 C-2.82177368 56.02819626 -2.92284424 56.92821869 -3.02697754 57.85551453 C-3.216029 59.50699077 -3.41669079 61.15719967 -3.6315918 62.80551147 C-3.93397037 65.16647458 -3.93397037 65.16647458 -3.94921875 68.38720703 C-4.40844727 69.66084106 -4.40844727 69.66084106 -4.87695312 70.96020508 C-7.51695312 71.95020508 -10.15695313 72.94020508 -12.87695312 73.96020508 C-19.14695312 67.69020508 -25.41695313 61.42020508 -31.87695312 54.96020508 C-35.85868821 56.95107262 -38.40745158 59.22038708 -41.47167969 62.32788086 C-42.01846375 62.87437286 -42.5652478 63.42086487 -43.12860107 63.98391724 C-44.92970961 65.78641601 -46.7236356 67.59588903 -48.51757812 69.40551758 C-49.76695808 70.65862874 -51.01678114 71.91129827 -52.26702881 73.1635437 C-55.55282184 76.45696463 -58.83256383 79.75634799 -62.11108398 83.05700684 C-65.45909565 86.42549502 -68.8127922 89.78831268 -72.16601562 93.15161133 C-78.74190609 99.74893684 -85.31141828 106.35257491 -91.87695312 112.96020508 C-99.26256852 106.70463489 -99.26256852 106.70463489 -102.40429688 103.53051758 C-103.25024414 102.67973633 -103.25024414 102.67973633 -104.11328125 101.81176758 C-104.67466797 101.24200195 -105.23605469 100.67223633 -105.81445312 100.08520508 C-106.40291016 99.49223633 -106.99136719 98.89926758 -107.59765625 98.28833008 C-109.02642987 96.84794042 -110.45203444 95.40440838 -111.87695312 93.96020508 C-110.27627752 89.98494284 -107.50551756 87.32000204 -104.50927734 84.36547852 C-103.96278534 83.81869446 -103.41629333 83.2719104 -102.85324097 82.70855713 C-101.0507422 80.90744859 -99.24126917 79.1135226 -97.43164062 77.31958008 C-96.17852946 76.07020012 -94.92585994 74.82037706 -93.6736145 73.57012939 C-90.38019357 70.28433636 -87.08081021 67.00459438 -83.78015137 63.72607422 C-80.41166318 60.37806255 -77.04884553 57.02436601 -73.68554688 53.67114258 C-67.08822137 47.09525212 -60.4845833 40.52573992 -53.87695312 33.96020508 C-55.49471429 30.535378 -57.30038556 28.30329986 -60.00976562 25.63208008 C-60.81542969 24.83286133 -61.62109375 24.03364258 -62.45117188 23.21020508 C-63.29292969 22.38520508 -64.1346875 21.56020508 -65.00195312 20.71020508 C-65.85144531 19.86973633 -66.7009375 19.02926758 -67.57617188 18.16333008 C-69.67200236 16.09104825 -71.77236026 14.02358115 -73.87695312 11.96020508 C-73.31445312 9.08520508 -73.31445312 9.08520508 -71.87695312 5.96020508 C-65.59459926 3.48502241 -58.82273424 3.14159062 -52.15429688 2.45239258 C-50.93545303 2.3220462 -49.71660919 2.19169983 -48.46083069 2.05740356 C-45.89175965 1.7839509 -43.32236811 1.51349468 -40.75268555 1.24584961 C-36.82391238 0.83619141 -32.89630226 0.41654787 -28.96875 -0.00463867 C-26.46816132 -0.26955093 -23.96751218 -0.53389318 -21.46679688 -0.79760742 C-19.70879005 -0.98506027 -19.70879005 -0.98506027 -17.91526794 -1.17630005 C-16.26809532 -1.34680374 -16.26809532 -1.34680374 -14.58764648 -1.52075195 C-13.14705116 -1.67158737 -13.14705116 -1.67158737 -11.67735291 -1.82546997 C-3.46151754 -2.45425823 -3.46151754 -2.45425823 0 0 Z " fill="#022E50" transform="translate(237.876953125,28.039794921875)"/>
<path d="M0 0 C9.9 0 19.8 0 30 0 C31.80405418 1.80405418 31.12617855 4.55395619 31.12698364 6.98446655 C31.12980347 8.28569962 31.13262329 9.58693268 31.13552856 10.92759705 C31.13358394 12.38320937 31.13153575 13.83882155 31.12939453 15.29443359 C31.13074853 16.81678815 31.13252846 18.33914237 31.13470459 19.86149597 C31.13927983 24.00820827 31.13748879 28.15489581 31.1343255 32.30160856 C31.13180145 36.63374113 31.13413965 40.96587151 31.13571167 45.29800415 C31.13753362 52.57660301 31.13512679 59.85519174 31.13037109 67.13378906 C31.12493251 75.55491047 31.1266881 83.97600765 31.1321975 92.39712846 C31.13673277 99.61752002 31.13737702 106.83790428 31.13475883 114.0582968 C31.13319782 118.37487092 31.13299743 122.69143365 31.13629532 127.00800705 C31.13917988 131.06759845 31.13718751 135.12715858 31.13140106 139.1867466 C31.13007644 140.67871486 31.13046255 142.17068574 31.13266373 143.66265297 C31.13538695 145.69562309 31.13137015 147.72859895 31.12698364 149.76156616 C31.12660662 150.90052526 31.12622959 152.03948437 31.12584114 153.21295738 C31 156 31 156 30 159 C20.1 159 10.2 159 0 159 C0 106.53 0 54.06 0 0 Z " fill="#023154" transform="translate(432,60)"/>
<path d="M0 0 C6.9943875 14.28243249 9.90594268 29.4534968 5.09580994 45.0398407 C0.58394621 57.2279355 -9.3021465 65.9231504 -18.28515625 74.88671875 C-19.7890432 76.39839812 -21.29248874 77.91051675 -22.79551697 79.42304993 C-25.93659476 82.5789808 -29.08521633 85.72714348 -32.23901367 88.87036133 C-36.25122492 92.87099537 -40.24025695 96.8938822 -44.22339725 100.92343426 C-47.3195312 104.04923549 -50.42962732 107.16085639 -53.54372978 110.26874733 C-55.01899718 111.74503158 -56.48963352 113.22596067 -57.95521736 114.71185875 C-71.64125195 128.56420176 -85.92621519 139.59086344 -106.1875 140.25 C-118.62539844 140.08146479 -128.84659209 135.34169679 -137.625 126.625 C-138.76056871 125.4265935 -139.88974768 124.2218978 -141 123 C-138.05824373 122.13986422 -135.5643492 121.92107839 -132.5078125 122.04296875 C-115.00792872 122.53787866 -100.92419089 120.24052695 -87.57998657 107.94407654 C-83.67999292 104.22410741 -79.89073686 100.39469661 -76.1015625 96.5625 C-74.69509892 95.15364665 -73.28788907 93.74553795 -71.87997437 92.33813477 C-68.94742124 89.4024715 -66.02165289 86.46027084 -63.10107422 83.51269531 C-59.36917135 79.74672139 -55.62414457 75.99414095 -51.87441444 72.2459259 C-48.97410579 69.34507205 -46.07904855 66.43902493 -43.18571091 63.53121948 C-41.80666859 62.14584416 -40.42643932 60.76164926 -39.04497147 59.37869263 C-37.11426346 57.44361963 -35.19029576 55.50208487 -33.26806641 53.55859375 C-32.70487701 52.99631073 -32.14168762 52.43402771 -31.56143188 51.85470581 C-25.24895446 45.4405343 -20.57248941 39.02633684 -19 30 C-19.05285156 28.94683594 -19.10570312 27.89367187 -19.16015625 26.80859375 C-19.4592765 20.06688351 -18.89249768 16.63612617 -14.453125 11.546875 C-3.37231835 0 -3.37231835 0 0 0 Z " fill="#022C4D" transform="translate(199,106)"/>
<path d="M0 0 C9.9 0 19.8 0 30 0 C30 37.95 30 75.9 30 115 C20.1 115 10.2 115 0 115 C0 77.05 0 39.1 0 0 Z " fill="#023358" transform="translate(492,104)"/>
<path d="M0 0 C4.98669007 2.49334503 8.49675474 5.99350949 11 11 C11.68243922 18.37258109 11.76668165 24.13331489 7 30 C2.01040333 33.97131164 -2.07726374 34.63845459 -8.4140625 34.38671875 C-13.40658217 33.64010327 -16.03882944 31.0650809 -19.3125 27.4375 C-22.64227118 22.62783052 -22.61931151 17.6598191 -22 12 C-20.31294305 7.14054247 -17.2510839 3.83405593 -13 1 C-8.64950335 -0.45016555 -4.54665815 -0.51070107 0 0 Z " fill="#032C4D" transform="translate(512,58)"/>
<path d="M0 0 C10.23 0 20.46 0 31 0 C31.02256518 9.35309182 31.04092332 18.70616564 31.05181217 28.05927849 C31.05703746 32.4019967 31.06412873 36.74469538 31.07543945 41.08740234 C31.08628085 45.27598387 31.09227951 49.46454656 31.09487724 53.65314102 C31.09672922 55.25357485 31.10034552 56.8540076 31.10573006 58.45443344 C31.1129571 60.69083661 31.11399023 62.92716131 31.11352539 65.16357422 C31.115746 66.43820526 31.11796661 67.7128363 31.12025452 69.02609253 C31 72 31 72 30 74 C34.04931785 70.06379159 37.76031166 65.90860186 41.4375 61.625 C41.98470703 60.99078125 42.53191406 60.3565625 43.09570312 59.703125 C46.73983239 55.47679757 50.36964156 51.238156 54 47 C54 51.35156092 51.33077548 53.41186075 48.5625 56.5 C47.45820229 57.75134091 46.35535343 59.00396179 45.25390625 60.2578125 C44.7036377 60.88333008 44.15336914 61.50884766 43.58642578 62.15332031 C42.12156892 63.85848765 40.71921606 65.59257503 39.33984375 67.3671875 C38.56769531 68.35976562 37.79554688 69.35234375 37 70.375 C36.319375 71.26960938 35.63875 72.16421875 34.9375 73.0859375 C33 75 33 75 29 75 C29 50.91 29 26.82 29 2 C20.09 2 11.18 2 2 2 C2 53.48 2 104.96 2 158 C10.91 158 19.82 158 29 158 C29 135.23 29 112.46 29 89 C29.66 89.33 30.32 89.66 31 90 C31.02314169 98.70116929 31.04092443 107.40232803 31.05181217 116.10352135 C31.05703699 120.14356954 31.06412739 124.18359672 31.07543945 128.22363281 C31.08628254 132.120441 31.09227987 136.01722895 31.09487724 139.91405106 C31.09672892 141.40284163 31.10034463 142.89163107 31.10573006 144.38041306 C31.11295934 146.46115285 31.11399014 148.54180832 31.11352539 150.62255859 C31.115746 151.80836517 31.11796661 152.99417175 31.12025452 154.21591187 C31 157 31 157 30 159 C20.1 159 10.2 159 0 159 C0 106.53 0 54.06 0 0 Z " fill="#050C22" transform="translate(288,60)"/>
<path d="M0 0 C9.9 0 19.8 0 30 0 C31.80405418 1.80405418 31.12617855 4.55395619 31.12698364 6.98446655 C31.12980347 8.28569962 31.13262329 9.58693268 31.13552856 10.92759705 C31.13358394 12.38320937 31.13153575 13.83882155 31.12939453 15.29443359 C31.13074853 16.81678815 31.13252846 18.33914237 31.13470459 19.86149597 C31.13927983 24.00820827 31.13748879 28.15489581 31.1343255 32.30160856 C31.13180145 36.63374113 31.13413965 40.96587151 31.13571167 45.29800415 C31.13753362 52.57660301 31.13512679 59.85519174 31.13037109 67.13378906 C31.12493251 75.55491047 31.1266881 83.97600765 31.1321975 92.39712846 C31.13673277 99.61752002 31.13737702 106.83790428 31.13475883 114.0582968 C31.13319782 118.37487092 31.13299743 122.69143365 31.13629532 127.00800705 C31.13917988 131.06759845 31.13718751 135.12715858 31.13140106 139.1867466 C31.13007644 140.67871486 31.13046255 142.17068574 31.13266373 143.66265297 C31.13538695 145.69562309 31.13137015 147.72859895 31.12698364 149.76156616 C31.12660662 150.90052526 31.12622959 152.03948437 31.12584114 153.21295738 C31 156 31 156 30 159 C20.1 159 10.2 159 0 159 C0 106.53 0 54.06 0 0 Z M1 2 C1 53.48 1 104.96 1 158 C10.24 158 19.48 158 29 158 C29 106.52 29 55.04 29 2 C19.76 2 10.52 2 1 2 Z " fill="#00071A" transform="translate(432,60)"/>
<path d="M0 0 C9.9 0 19.8 0 30 0 C30 53.13 30 106.26 30 161 C20.1 161 10.2 161 0 161 C0 140.87 0 120.74 0 100 C0.33 100 0.66 100 1 100 C1 119.8 1 139.6 1 160 C9.91 160 18.82 160 28 160 C28 107.86 28 55.72 28 2 C19.09 2 10.18 2 1 2 C1 6.29 1 10.58 1 15 C0.67 15 0.34 15 0 15 C0 10.05 0 5.1 0 0 Z " fill="#020B1E" transform="translate(625,104)"/>
<path d="M0 0 C9.9 0 19.8 0 30 0 C30 37.95 30 75.9 30 115 C20.1 115 10.2 115 0 115 C0 77.05 0 39.1 0 0 Z M2 2 C2 38.96 2 75.92 2 114 C10.91 114 19.82 114 29 114 C29 77.04 29 40.08 29 2 C20.09 2 11.18 2 2 2 Z " fill="#02091A" transform="translate(492,104)"/>
<path d="M0 0 C4.1117256 -0.02465746 8.22342278 -0.04283959 12.33520508 -0.05493164 C13.73495228 -0.0599708 15.1346942 -0.06680216 16.53442383 -0.07543945 C18.54245777 -0.0875232 20.55052957 -0.09269807 22.55859375 -0.09765625 C24.37315063 -0.10551147 24.37315063 -0.10551147 26.22436523 -0.11352539 C29 0 29 0 30 1 C30.10036623 3.41576044 30.13617932 5.80294114 30.12939453 8.21923828 C30.13114685 8.97557556 30.13289917 9.73191284 30.13470459 10.51116943 C30.13913116 13.03090667 30.13617824 15.55057444 30.1328125 18.0703125 C30.13348629 19.82656874 30.13445694 21.58282489 30.13571167 23.33908081 C30.13719051 27.03644694 30.13503174 30.733789 30.13037109 34.43115234 C30.12473212 39.13003063 30.12791406 43.82885106 30.13394356 48.52772713 C30.13759448 52.16556211 30.13638902 55.8033839 30.13381577 59.44121933 C30.13315588 61.17045982 30.13394147 62.89970157 30.13629532 64.62894058 C30.14743496 75.1332039 29.85710062 85.52748883 29 96 C28.67 96 28.34 96 28 96 C28 64.98 28 33.96 28 2 C18.76 2 9.52 2 0 2 C0 1.34 0 0.68 0 0 Z " fill="#060F26" transform="translate(433,60)"/>
<path d="M0 0 C0 4.11264617 -1.51834158 4.90985153 -4.38354492 7.8034668 C-5.08374001 8.5163662 -5.08374001 8.5163662 -5.79808044 9.2436676 C-7.35106603 10.82013128 -8.91509065 12.38506593 -10.48046875 13.94921875 C-11.57063152 15.04648675 -12.66049621 16.14405098 -13.75007629 17.24189758 C-16.04426231 19.54956044 -18.34433757 21.85116258 -20.64819336 24.14916992 C-23.57097636 27.0661144 -26.47527912 30.00069105 -29.37472057 32.94081402 C-31.62677913 35.21901832 -33.89052112 37.48534379 -36.1574955 39.74869728 C-37.23093315 40.82380745 -38.30048348 41.90281587 -39.36571312 42.98605919 C-51.30658347 55.10615461 -64.80910729 64.95268245 -82.5234375 65.09765625 C-84.1406541 65.0910822 -85.75785694 65.07926464 -87.375 65.0625 C-88.20644531 65.05798828 -89.03789063 65.05347656 -89.89453125 65.04882812 C-91.92971897 65.03713164 -93.96486923 65.01919935 -96 65 C-94.35 66.98 -92.7 68.96 -91 71 C-94.21043882 69.61811547 -96.04936365 68.07578097 -98.25 65.375 C-99.03117187 64.42753906 -99.03117187 64.42753906 -99.828125 63.4609375 C-100.21484375 62.97882813 -100.6015625 62.49671875 -101 62 C-100.31599121 62.02094727 -99.63198242 62.04189453 -98.92724609 62.06347656 C-79.17645605 62.5882159 -63.57274253 62.07732825 -48.04974365 48.40065002 C-44.88405286 45.39222663 -41.82665909 42.27813704 -38.76953125 39.16015625 C-37.64270462 38.02584911 -36.51497662 36.89243676 -35.38639832 35.75987244 C-32.44960109 32.80796126 -29.52502888 29.84423346 -26.60302734 26.87768555 C-23.60671944 23.84011406 -20.59874468 20.81414204 -17.59179688 17.78710938 C-11.71652926 11.86922294 -5.85415378 5.93877343 0 0 Z " fill="#01091B" transform="translate(159,166)"/>
<path d="M0 0 C1.8514861 0.04015115 3.70305527 0.07664909 5.5546875 0.109375 C10.08018032 0.19730992 14.60167987 0.33521602 19.125 0.5 C17.60049694 3.68135446 15.91013579 6.10339598 13.5625 8.75 C12.94246094 9.45640625 12.32242188 10.1628125 11.68359375 10.890625 C10.91208984 11.68726562 10.91208984 11.68726562 10.125 12.5 C9.795 12.5 9.465 12.5 9.125 12.5 C9.125 10.85 9.125 9.2 9.125 7.5 C9.785 7.5 10.445 7.5 11.125 7.5 C11.785 6.18 12.445 4.86 13.125 3.5 C13.785 3.5 14.445 3.5 15.125 3.5 C3.905 3.17 -7.315 2.84 -18.875 2.5 C-19.205 3.82 -19.535 5.14 -19.875 6.5 C-21.125 9.1875 -21.125 9.1875 -22.875 11.5 C-25.5625 12.3125 -25.5625 12.3125 -27.875 12.5 C-27.58383301 11.92701172 -27.29266602 11.35402344 -26.99267578 10.76367188 C-25.85719463 8.55364295 -25.85719463 8.55364295 -25.06591797 6.37695312 C-20.29832621 -2.9284147 -8.91528389 -0.33440201 0 0 Z " fill="#01091C" transform="translate(399.875,59.5)"/>
<path d="M0 0 C1.42317851 0.00078984 2.84651288 0.02894351 4.26879883 0.0793457 C5.39442986 0.08995781 5.39442986 0.08995781 6.5428009 0.1007843 C8.93816103 0.12876038 11.33117755 0.19149686 13.72583008 0.25512695 C15.35014526 0.28020603 16.97449711 0.3030199 18.59887695 0.32348633 C22.57959679 0.37859653 26.55856623 0.46488462 30.53833008 0.56762695 C29.41929462 2.38381552 28.29291724 4.19548221 27.16333008 6.00512695 C26.5368457 7.01446289 25.91036133 8.02379883 25.26489258 9.0637207 C23.53833008 11.56762695 23.53833008 11.56762695 21.53833008 12.56762695 C22.79399912 9.0903896 24.27176164 6.47380238 26.53833008 3.56762695 C10.08225759 0.88017729 10.08225759 0.88017729 -5.0144043 5.48364258 C-9.14448378 10.3903182 -11.73903025 15.98036988 -14.21508789 21.85620117 C-16.15622306 26.07834125 -18.75772439 29.80235226 -21.46166992 33.56762695 C-21.79166992 32.90762695 -22.12166992 32.24762695 -22.46166992 31.56762695 C-21.15405273 29.03320312 -21.15405273 29.03320312 -19.16479492 25.8605957 C-18.81535828 25.2981868 -18.46592163 24.73577789 -18.105896 24.15632629 C-16.98197538 22.35112375 -15.84708934 20.55311451 -14.71166992 18.75512695 C-13.96092502 17.55442051 -13.21091582 16.35325373 -12.46166992 15.15161133 C-11.07465416 12.9281778 -9.68261694 10.70822742 -8.28686523 8.49023438 C-6.4181614 5.65274693 -6.4181614 5.65274693 -5.20556641 2.71655273 C-3.46166992 0.56762695 -3.46166992 0.56762695 0 0 Z " fill="#020A1E" transform="translate(747.461669921875,103.432373046875)"/>
<path d="M0 0 C29.93457602 -3.65324009 29.93457602 -3.65324009 37.95117188 2.12841797 C42.53705699 7.50086945 45.31178473 13.6427073 47.83886719 20.19140625 C49.23490847 23.56820586 51.02973661 26.46886279 53.08642578 29.4765625 C54 31 54 31 54 33 C54.99 33.495 54.99 33.495 56 34 C55.01 34 54.02 34 53 34 C51.66894531 32.33862305 51.66894531 32.33862305 50.328125 30.01171875 C49.82796875 29.15900391 49.3278125 28.30628906 48.8125 27.42773438 C48.296875 26.52345703 47.78125 25.61917969 47.25 24.6875 C45.71343898 22.04010041 44.17275209 19.39901966 42.58813477 16.7800293 C41 14 41 14 39.64428711 10.90161133 C38.04155812 7.61584461 36.74720659 5.42790039 34 3 C28.29374061 1.64505944 22.87750258 1.95424717 17.0625 2.3125 C15.50472994 2.36773548 13.94677192 2.41791555 12.38867188 2.46289062 C8.58777693 2.58357158 4.79596453 2.77293444 1 3 C0.67 2.01 0.34 1.02 0 0 Z " fill="#040B20" transform="translate(669,104)"/>
<path d="M0 0 C0 4.07961498 -1.60700638 5.19776865 -4.25 8.25 C-8.03494762 12.69689796 -8.03494762 12.69689796 -11 17.6875 C-13.8410668 22.39301688 -17.78553243 25.53297005 -22 29 C-22 24.64775937 -19.33009449 22.58918556 -16.5625 19.5 C-15.46248148 18.24702372 -14.36353532 16.99310523 -13.265625 15.73828125 C-12.71583984 15.11260254 -12.16605469 14.48692383 -11.59960938 13.84228516 C-8.52706714 10.30360938 -5.5945567 6.65274116 -2.64453125 3.01171875 C-1 1 -1 1 0 0 Z " fill="#041225" transform="translate(371,72)"/>
<path d="M0 0 C9.57 0 19.14 0 29 0 C29 0.66 29 1.32 29 2 C20.09 2 11.18 2 2 2 C2 3.65 2 5.3 2 7 C0 4 0 4 0 0 Z " fill="#071028" transform="translate(492,104)"/>
<path d="M0 0 C1.9375 0.375 1.9375 0.375 4 1 C4.33 1.66 4.66 2.32 5 3 C5.66 2.67 6.32 2.34 7 2 C7.66 2.66 8.32 3.32 9 4 C8.67 4.99 8.34 5.98 8 7 C8.66 7.33 9.32 7.66 10 8 C10.474375 8.825 10.94875 9.65 11.4375 10.5 C12.81319541 13.29155483 12.81319541 13.29155483 16 14 C16.33 14.99 16.66 15.98 17 17 C10.48598331 14.83633368 5.45745333 9.79788242 1.75390625 4.07421875 C0.9375 2.4375 0.9375 2.4375 0 0 Z " fill="#0A2C48" transform="translate(30,191)"/>
<path d="M0 0 C0 0.33 0 0.66 0 1 C-1.25296875 1.09796875 -2.5059375 1.1959375 -3.796875 1.296875 C-5.44800232 1.44697748 -7.09903974 1.59807114 -8.75 1.75 C-9.9875 1.8428125 -9.9875 1.8428125 -11.25 1.9375 C-16.31408294 2.41822498 -16.31408294 2.41822498 -20.578125 5.078125 C-21.04734375 5.71234375 -21.5165625 6.3465625 -22 7 C-21.01 7.33 -20.02 7.66 -19 8 C-19.33 8.99 -19.66 9.98 -20 11 C-21.32 9.68 -22.64 8.36 -24 7 C-23.34 5.02 -22.68 3.04 -22 1 C-14.63959083 0.20274098 -7.40239645 -0.12886183 0 0 Z " fill="#0F3453" transform="translate(190,33)"/>
<path d="M0 0 C3.34373475 0.55728913 6.03312999 1.35173889 9 3 C9 4.32 9 5.64 9 7 C9.66 7 10.32 7 11 7 C12.20628008 9.33214148 13.1654738 11.49642139 14 14 C12 14 12 14 10.44921875 12.4609375 C9.86785156 11.77257812 9.28648437 11.08421875 8.6875 10.375 C8.07132813 9.65054688 7.45515625 8.92609375 6.8203125 8.1796875 C5.91925781 7.10074219 5.91925781 7.10074219 5 6 C4.48179687 5.38382813 3.96359375 4.76765625 3.4296875 4.1328125 C2.28041165 2.76024877 1.1392439 1.3809017 0 0 Z " fill="#092741" transform="translate(612,128)"/>
<path d="M0 0 C0.66 0.33 1.32 0.66 2 1 C-4.27 7.27 -10.54 13.54 -17 20 C-17.33 19.34 -17.66 18.68 -18 18 C-12 12 -6 6 0 0 Z " fill="#010B1A" transform="translate(74,123)"/>
<path d="M0 0 C0.66 0.33 1.32 0.66 2 1 C0.70738073 6.05296625 -1.16263324 8.51959759 -5 12 C-5.928125 12.928125 -6.85625 13.85625 -7.8125 14.8125 C-8.534375 15.534375 -9.25625 16.25625 -10 17 C-10.66 16.67 -11.32 16.34 -12 16 C-11.38511719 15.34773437 -10.77023438 14.69546875 -10.13671875 14.0234375 C-9.32847656 13.14945313 -8.52023438 12.27546875 -7.6875 11.375 C-6.88699219 10.51648438 -6.08648437 9.65796875 -5.26171875 8.7734375 C-2.98205128 5.97799034 -1.48419262 3.27579084 0 0 Z " fill="#0C314C" transform="translate(179,144)"/>
<path d="M0 0 C1.32 0.33 2.64 0.66 4 1 C0.37 4.63 -3.26 8.26 -7 12 C-7.66 11.34 -8.32 10.68 -9 10 C-8.34 10 -7.68 10 -7 10 C-6.67 8.68 -6.34 7.36 -6 6 C-5.01 6 -4.02 6 -3 6 C-3 5.01 -3 4.02 -3 3 C-1.75 1.25 -1.75 1.25 0 0 Z " fill="#0B324F" transform="translate(161,119)"/>
<path d="M0 0 C0.66 0 1.32 0 2 0 C1.35089967 3.5051418 0.15543411 6.15174779 -2 9 C-4.6875 9.8125 -4.6875 9.8125 -7 10 C-5.32598022 6.04322598 -2.86850715 3.15535787 0 0 Z " fill="#081C37" transform="translate(379,62)"/>
<path d="M0 0 C0 0.99 0 1.98 0 3 C-1.79296875 4.53515625 -1.79296875 4.53515625 -4.1875 6.0625 C-4.96480469 6.56910156 -5.74210938 7.07570312 -6.54296875 7.59765625 C-12.835141 11.18889605 -12.835141 11.18889605 -16.3125 10.625 C-16.869375 10.41875 -17.42625 10.2125 -18 10 C-16.5437455 9.32880451 -15.08492133 8.66318193 -13.625 8 C-12.81289063 7.62875 -12.00078125 7.2575 -11.1640625 6.875 C-9 6 -9 6 -7 6 C-7 5.34 -7 4.68 -7 4 C-6.21625 3.71125 -5.4325 3.4225 -4.625 3.125 C-1.90328368 2.15087746 -1.90328368 2.15087746 0 0 Z " fill="#0E324E" transform="translate(618,208)"/>
<path d="M0 0 C0.66 0.33 1.32 0.66 2 1 C2 12 2 12 0 14.1875 C-0.99 15.0846875 -0.99 15.0846875 -2 16 C-2.66 15.67 -3.32 15.34 -4 15 C-3.525625 14.38125 -3.05125 13.7625 -2.5625 13.125 C-0.41947162 8.83894324 -0.26657436 4.73399291 0 0 Z " fill="#092C47" transform="translate(626,170)"/>
<path d="M0 0 C0.8125 1.625 0.8125 1.625 1 4 C-1.3125 7.25 -1.3125 7.25 -4 10 C-4.66 10 -5.32 10 -6 10 C-6 10.66 -6 11.32 -6 12 C-6.99 11.67 -7.98 11.34 -9 11 C-8.51789063 10.45730469 -8.03578125 9.91460937 -7.5390625 9.35546875 C-6.90742187 8.64003906 -6.27578125 7.92460937 -5.625 7.1875 C-4.68527344 6.12595703 -4.68527344 6.12595703 -3.7265625 5.04296875 C-1.859401 2.91196181 -1.859401 2.91196181 0 0 Z " fill="#0D324F" transform="translate(101,163)"/>
<path d="M0 0 C0 2.83967231 -0.40267181 5.23735711 -1 8 C0.32 8 1.64 8 3 8 C3 8.66 3 9.32 3 10 C0 11 0 11 -2.1875 10.0625 C-2.785625 9.711875 -3.38375 9.36125 -4 9 C-4.25 6.75 -4.25 6.75 -4 4 C-2 1.6875 -2 1.6875 0 0 Z " fill="#03213C" transform="translate(347,101)"/>
<path d="M0 0 C0.66 0.33 1.32 0.66 2 1 C2 1.66 2 2.32 2 3 C0.60794237 3.91672088 -0.78748662 4.82872072 -2.19921875 5.71484375 C-5.50052747 8.07087535 -8.21544991 11.06716026 -11 14 C-11.66 13.67 -12.32 13.34 -13 13 C-8.71 8.71 -4.42 4.42 0 0 Z " fill="#0D3051" transform="translate(147,101)"/>
<path d="M0 0 C0.33 0 0.66 0 1 0 C1.18175781 0.80824219 1.36351562 1.61648437 1.55078125 2.44921875 C1.80214844 3.51785156 2.05351563 4.58648437 2.3125 5.6875 C2.55613281 6.74324219 2.79976562 7.79898438 3.05078125 8.88671875 C3.99260825 11.97575628 5.22372937 14.31817964 7 17 C5.35 16.67 3.7 16.34 2 16 C0.61470179 10.54538831 -0.2396943 5.63281599 0 0 Z " fill="#0B2B49" transform="translate(46,169)"/>
<path d="M0 0 C0.33 0 0.66 0 1 0 C1.2358396 5.77807024 0.86783046 10.51324804 -1 16 C-1.66 15.67 -2.32 15.34 -3 15 C-2.68950274 13.56206608 -2.3765224 12.1246682 -2.0625 10.6875 C-1.88847656 9.88699219 -1.71445313 9.08648437 -1.53515625 8.26171875 C-1 6 -1 6 0 3 C-0.66 2.67 -1.32 2.34 -2 2 C-1.34 1.34 -0.68 0.68 0 0 Z M-4 3 C-2 4 -2 4 -2 4 Z " fill="#0B385A" transform="translate(237,33)"/>
<path d="M0 0 C2.31 0.33 4.62 0.66 7 1 C7 2.65 7 4.3 7 6 C8.32 6.33 9.64 6.66 11 7 C11 7.66 11 8.32 11 9 C5.70841026 7.59928507 3.22521956 4.14512755 0 0 Z " fill="#112F4A" transform="translate(62,230)"/>
<path d="M0 0 C2.79233071 2.55277419 3.48967606 4.22360282 4 8 C3.01 6.68 2.02 5.36 1 4 C-2.69418201 5.231394 -4.35109746 7.20791354 -7 10 C-6.42424336 6.64749299 -5.40693737 5.06181371 -2.9375 2.75 C-2.38964844 2.22921875 -1.84179688 1.7084375 -1.27734375 1.171875 C-0.64505859 0.59179688 -0.64505859 0.59179688 0 0 Z " fill="#0F3454" transform="translate(197,108)"/>
<path d="M0 0 C2.97 0.33 5.94 0.66 9 1 C7.02 1.99 7.02 1.99 5 3 C7.475 5.97 7.475 5.97 10 9 C5.3510435 6.99892742 3.15754829 3.8751729 0 0 Z " fill="#010613" transform="translate(58,228)"/>
<path d="M0 0 C9.80843419 0.61970499 9.80843419 0.61970499 14 4 C14 4.66 14 5.32 14 6 C12.68 5.67 11.36 5.34 10 5 C10 4.34 10 3.68 10 3 C6.7 2.34 3.4 1.68 0 1 C0 0.67 0 0.34 0 0 Z " fill="#0B2F4D" transform="translate(504,59)"/>
<path d="M0 0 C7.75 0.875 7.75 0.875 10 2 C9.67 2.99 9.34 3.98 9 5 C5.51694958 4.35499066 2.93797836 2.95865224 0 1 C0 0.67 0 0.34 0 0 Z " fill="#092E4A" transform="translate(134,57)"/>
<path d="M0 0 C2.0625 0.4375 2.0625 0.4375 4 1 C2.68 2.32 1.36 3.64 0 5 C0.99 5.99 1.98 6.98 3 8 C2.67 8.66 2.34 9.32 2 10 C0.35 8.35 -1.3 6.7 -3 5 C-1.125 1.125 -1.125 1.125 0 0 Z " fill="#0B3150" transform="translate(131,117)"/>
<path d="M0 0 C0 1.65 0 3.3 0 5 C-2.90600261 6.25664978 -4.79604584 7 -8 7 C-6.8572081 5.83035398 -5.71068285 4.66435444 -4.5625 3.5 C-3.92441406 2.8503125 -3.28632813 2.200625 -2.62890625 1.53125 C-1 0 -1 0 0 0 Z " fill="#0C2E4B" transform="translate(150,178)"/>
<path d="M0 0 C0.66 0.66 1.32 1.32 2 2 C1.875 3.9375 1.875 3.9375 1 6 C-1.0625 7.75 -1.0625 7.75 -3 9 C-3 7.35 -3 5.7 -3 4 C-2.34 4 -1.68 4 -1 4 C-0.67 2.68 -0.34 1.36 0 0 Z " fill="#061E33" transform="translate(412,63)"/>
<path d="M0 0 C0.66 0.66 1.32 1.32 2 2 C-0.31 4.31 -2.62 6.62 -5 9 C-5.33 7.68 -5.66 6.36 -6 5 C-5.34 5 -4.68 5 -4 5 C-3.67 4.34 -3.34 3.68 -3 3 C-2.01 2.67 -1.02 2.34 0 2 C0 1.34 0 0.68 0 0 Z " fill="#0C324D" transform="translate(157,67)"/>
<path d="M0 0 C1 2 1 2 0.6875 4.0625 C0 6 0 6 -2 7 C-2.99 8.485 -2.99 8.485 -4 10 C-4.66 10 -5.32 10 -6 10 C-4.34832443 6.4213696 -2.21713508 3.25179812 0 0 Z " fill="#0E324E" transform="translate(676,207)"/>
<path d="M0 0 C0.66 0.33 1.32 0.66 2 1 C-0.97 3.97 -3.94 6.94 -7 10 C-7 5.69032084 -4.83274712 4.10253255 -2 1 C-1.34 0.67 -0.68 0.34 0 0 Z " fill="#123350" transform="translate(148,208)"/>
<path d="M0 0 C3.36720387 1.39332574 4.9859524 2.9789286 7 6 C6.67 6.66 6.34 7.32 6 8 C1.2 4.55384615 1.2 4.55384615 0.1875 1.75 C0.125625 1.1725 0.06375 0.595 0 0 Z " fill="#09324D" transform="translate(402,200)"/>
<path d="M0 0 C4.455 1.98 4.455 1.98 9 4 C9 4.33 9 4.66 9 5 C7.5199159 4.88637738 6.04089926 4.75877092 4.5625 4.625 C3.73878906 4.55539063 2.91507813 4.48578125 2.06640625 4.4140625 C1.38449219 4.27742187 0.70257813 4.14078125 0 4 C-0.33 3.34 -0.66 2.68 -1 2 C-0.67 1.34 -0.34 0.68 0 0 Z " fill="#092E4A" transform="translate(53,186)"/>
<path d="M0 0 C0 3 0 3 -1.3125 4.38671875 C-2.875 5.59114583 -4.4375 6.79557292 -6 8 C-4.125 3.25 -4.125 3.25 -3 1 C-2.01 0.67 -1.02 0.34 0 0 Z " fill="#0E314D" transform="translate(192,90)"/>
<path d="M0 0 C0.66 0.33 1.32 0.66 2 1 C2 1.99 2 2.98 2 4 C-1.75 6 -1.75 6 -4 6 C-2.84826645 3.53199953 -1.95216435 1.95216435 0 0 Z " fill="#0A355A" transform="translate(93,72)"/>
<path d="M0 0 C0.99 0.33 1.98 0.66 3 1 C3.33 3.31 3.66 5.62 4 8 C1.10067643 5.60490662 0.49831724 3.68754757 0 0 Z " fill="#082037" transform="translate(741,209)"/>
<path d="M0 0 C1.32 0.66 2.64 1.32 4 2 C3.01 2.33 2.02 2.66 1 3 C0.67 3.99 0.34 4.98 0 6 C-0.66 4.68 -1.32 3.36 -2 2 C-1.34 1.34 -0.68 0.68 0 0 Z " fill="#062037" transform="translate(622,202)"/>
<path d="M0 0 C2.64752004 2.57784846 4.94432065 4.91648098 7 8 C6.401875 7.690625 5.80375 7.38125 5.1875 7.0625 C2.91043228 5.89790296 2.91043228 5.89790296 0 5 C0 3.35 0 1.7 0 0 Z " fill="#103656" transform="translate(572,184)"/>
<path d="M0 0 C2.5 1.1875 2.5 1.1875 5 3 C5.3125 5.6875 5.3125 5.6875 5 8 C4.67 7.34 4.34 6.68 4 6 C3.34 6 2.68 6 2 6 C0.375 3.5 0.375 3.5 -1 1 C-0.67 0.67 -0.34 0.34 0 0 Z " fill="#0C2D4E" transform="translate(347,176)"/>
<path d="M0 0 C0.99 0.33 1.98 0.66 3 1 C1.02 3.31 -0.96 5.62 -3 8 C-3 5.35220307 -2.82804069 3.48412207 -2 1 C-1.34 0.67 -0.68 0.34 0 0 Z " fill="#0D3250" transform="translate(396,82)"/>
<path d="M0 0 C0 0.33 0 0.66 0 1 C-2.64 1 -5.28 1 -8 1 C-8 0.34 -8 -0.32 -8 -1 C-4.59745511 -2.2151946 -3.06748874 -1.86240388 0 0 Z " fill="#082B47" transform="translate(135,78)"/>
</svg>
